# xmcd
#
# Track frame offsets:
#	150
#	21303
#	38819
#	60679
#	76921
#	97382
#	130038
#	146342
#	173590
#	187868
#	207449
#	234736
#	251514
#	278728
#	299064
# Disc length: 4224 seconds
# Revision: 2
# Processed by: cddbd v1.5.1PL2 Copyright (c) Steve Scherf et al.
#
# Submitted via: libkcddb 0.31
#
DISCID=da107e0f
DTITLE=Various Artist - 2005 Festival International de Jazz de Montreal
DYEAR=2005
DGENRE=Jazz
TTITLE0=Roy Hargrove and The RH Factor - Strength
TTITLE1=Brazilian Girls - Don't Stop
TTITLE2=Charlie Haden - Cuando Te Podré Olvidar - When Will I Forget You
TTITLE3=Sophie Milman - My Baby Just Cares For You
TTITLE4=Paul Anka - True
TTITLE5=Dave Holland Big Band - Last Minute Man
TTITLE6=Nicolas Repac - Revue Noire
TTITLE7=Astrud Gilberto - The Gentle Rain (RJD2 Remix)
TTITLE8=Gonzales - Manifesto
TTITLE9=Gwyneth Herbert - Glory Box
TTITLE10=Al Jarreau - Midnight Sun
TTITLE11=David Gogo - Silk and Stone
TTITLE12=Bugge Wesseltoft - Oh Ye
TTITLE13=Pat Metheny and Charlie Haden - Waltz For Ruth
TTITLE14=Lizz Wright - Narrow Daylight
EXTD=YEAR: 2005
EXTT0=
EXTT1=
EXTT2=
EXTT3=
EXTT4=
EXTT5=
EXTT6=
EXTT7=
EXTT8=
EXTT9=
EXTT10=
EXTT11=
EXTT12=
EXTT13=
EXTT14=
PLAYORDER=
